<?xml version='1.0' encoding='UTF-8'?>
<svg viewBox="-4 0 32 32" xmlns="http://www.w3.org/2000/svg" xmlns:xlink="http://www.w3.org/1999/xlink">
  <g transform="translate(0, 0)">
    <g transform="matrix(1.14285719394684, 0, 0, 1.14285719394684, 0, 0)">
      <g transform="translate(0, 0)">
        <g transform="matrix(0.874998331069946, 0, 0, 0.874998331069946, 0, 0)">
          <g transform="translate(0, 0)">
            <g transform="matrix(1.14285719394684, 0, 0, 1.14285719394684, 0, 0)">
              <g transform="translate(0, 0)">
                <g transform="matrix(0.875000715255737, 0, 0, 0.875000715255737, 0, 0)">
                  <g transform="translate(0, 0)">
                    <g transform="matrix(1.14285719394684, 0, 0, 1.14285719394684, 0, 0)">
                      <g id="Layer_1" transform="translate(-3.50000286102295, 0)" style="enable-background:new 0 0 16 16">
                        <g transform="matrix(1.75000143051147, 0, 0, 1.75000143051147, 0, 0)">
                          <g>
                            <g>
                              <g>
                                <g>
                                  <path d="M11, 2L11, 0L5, 0L5, 2L2, 2L2, 16L14, 16L14, 2L11, 2zM12, 14L4, 14L4, 4L12, 4L12, 14z" fill="#787878" class="dx_darkgray" />
                                </g>
                              </g>
                            </g>
                          </g>
                        </g>
                      </g>
                    </g>
                  </g>
                </g>
              </g>
            </g>
          </g>
        </g>
      </g>
    </g>
  </g>
  <g transform="translate(0, 0)">
    <g transform="matrix(1.14285719394684, 0, 0, 1.14285719394684, 0, 0)">
      <g transform="translate(0, 0)">
        <g transform="matrix(0.874998331069946, 0, 0, 0.874998331069946, 0, 0)">
          <g transform="translate(0, 0)">
            <g transform="matrix(1.14285719394684, 0, 0, 1.14285719394684, 0, 0)">
              <g transform="translate(0, 0)">
                <g transform="matrix(0.875000715255737, 0, 0, 0.875000715255737, 0, 0)">
                  <g transform="translate(0, 0)">
                    <g transform="matrix(1.14285719394684, 0, 0, 1.14285719394684, 0, 0)">
                      <g id="Layer_1" transform="translate(-3.50000286102295, 0)" style="enable-background:new 0 0 16 16">
                        <g transform="matrix(1.75000143051147, 0, 0, 1.75000143051147, 0, 0)">
                          <g>
                            <g>
                              <g>
                                <g>
                                  <path d="M11, 2L11, 0L5, 0L5, 2L2, 2L2, 16L14, 16L14, 2L11, 2zM12, 14L4, 14L4, 4L12, 4L12, 14z" fill="#787878" class="dx_darkgray" />
                                </g>
                              </g>
                            </g>
                          </g>
                        </g>
                      </g>
                    </g>
                  </g>
                </g>
              </g>
            </g>
          </g>
        </g>
      </g>
    </g>
  </g>
  <g transform="translate(0, -9.5367431640625E-07)">
    <g transform="matrix(1.14285719394684, 0, 0, 1.14285719394684, 0, 0)">
      <g transform="translate(0, 0)">
        <g transform="matrix(0.874998331069946, 0, 0, 0.874998331069946, 0, 0)">
          <g transform="translate(-9.5367431640625E-07, -9.5367431640625E-07)">
            <g transform="matrix(1.14285719394684, 0, 0, 1.14285719394684, 0, 0)">
              <g transform="translate(-9.5367431640625E-07, 0)">
                <g transform="matrix(0.875000715255737, 0, 0, 0.875000715255737, 0, 0)">
                  <g transform="translate(0, -9.5367431640625E-07)">
                    <g transform="matrix(1.14285719394684, 0, 0, 1.14285719394684, 0, 0)">
                      <g id="Layer_1" transform="translate(-3.50000333786011, -9.5367431640625E-07)" style="enable-background:new 0 0 16 16">
                        <g transform="matrix(1.75000143051147, 0, 0, 1.75000143051147, 0, 0)">
                          <g>
                            <g>
                              <g>
                                <rect x="6" y="5" width="4" height="1" fill="#787878" class="dx_darkgray" />
                              </g>
                            </g>
                          </g>
                        </g>
                      </g>
                    </g>
                  </g>
                </g>
              </g>
            </g>
          </g>
        </g>
      </g>
    </g>
  </g>
  <g transform="translate(0, -9.5367431640625E-07)">
    <g transform="matrix(1.14285719394684, 0, 0, 1.14285719394684, 0, 0)">
      <g transform="translate(0, 0)">
        <g transform="matrix(0.874998331069946, 0, 0, 0.874998331069946, 0, 0)">
          <g transform="translate(-9.5367431640625E-07, -9.5367431640625E-07)">
            <g transform="matrix(1.14285719394684, 0, 0, 1.14285719394684, 0, 0)">
              <g transform="translate(-9.5367431640625E-07, 0)">
                <g transform="matrix(0.875000715255737, 0, 0, 0.875000715255737, 0, 0)">
                  <g transform="translate(0, -9.5367431640625E-07)">
                    <g transform="matrix(1.14285719394684, 0, 0, 1.14285719394684, 0, 0)">
                      <g id="Layer_1" transform="translate(-3.50000333786011, -9.5367431640625E-07)" style="enable-background:new 0 0 16 16">
                        <g transform="matrix(1.75000143051147, 0, 0, 1.75000143051147, 0, 0)">
                          <g>
                            <g>
                              <g>
                                <rect x="6" y="5" width="4" height="1" fill="#787878" class="dx_darkgray" />
                              </g>
                            </g>
                          </g>
                        </g>
                      </g>
                    </g>
                  </g>
                </g>
              </g>
            </g>
          </g>
        </g>
      </g>
    </g>
  </g>
  <g transform="translate(0, -9.5367431640625E-07)">
    <g transform="matrix(1.14285719394684, 0, 0, 1.14285719394684, 0, 0)">
      <g transform="translate(0, 0)">
        <g transform="matrix(0.874998331069946, 0, 0, 0.874998331069946, 0, 0)">
          <g transform="translate(-9.5367431640625E-07, -9.5367431640625E-07)">
            <g transform="matrix(1.14285719394684, 0, 0, 1.14285719394684, 0, 0)">
              <g transform="translate(-9.5367431640625E-07, 0)">
                <g transform="matrix(0.875000715255737, 0, 0, 0.875000715255737, 0, 0)">
                  <g transform="translate(0, -9.5367431640625E-07)">
                    <g transform="matrix(1.14285719394684, 0, 0, 1.14285719394684, 0, 0)">
                      <g id="Layer_1" transform="translate(-3.50000333786011, -9.5367431640625E-07)" style="enable-background:new 0 0 16 16">
                        <g transform="matrix(1.75000143051147, 0, 0, 1.75000143051147, 0, 0)">
                          <g>
                            <g>
                              <g>
                                <rect x="6" y="7" width="4" height="1" fill="#787878" class="dx_darkgray" />
                              </g>
                            </g>
                          </g>
                        </g>
                      </g>
                    </g>
                  </g>
                </g>
              </g>
            </g>
          </g>
        </g>
      </g>
    </g>
  </g>
  <g transform="translate(0, -9.5367431640625E-07)">
    <g transform="matrix(1.14285719394684, 0, 0, 1.14285719394684, 0, 0)">
      <g transform="translate(0, 0)">
        <g transform="matrix(0.874998331069946, 0, 0, 0.874998331069946, 0, 0)">
          <g transform="translate(-9.5367431640625E-07, -9.5367431640625E-07)">
            <g transform="matrix(1.14285719394684, 0, 0, 1.14285719394684, 0, 0)">
              <g transform="translate(-9.5367431640625E-07, 0)">
                <g transform="matrix(0.875000715255737, 0, 0, 0.875000715255737, 0, 0)">
                  <g transform="translate(0, -9.5367431640625E-07)">
                    <g transform="matrix(1.14285719394684, 0, 0, 1.14285719394684, 0, 0)">
                      <g id="Layer_1" transform="translate(-3.50000333786011, -9.5367431640625E-07)" style="enable-background:new 0 0 16 16">
                        <g transform="matrix(1.75000143051147, 0, 0, 1.75000143051147, 0, 0)">
                          <g>
                            <g>
                              <g>
                                <rect x="6" y="7" width="4" height="1" fill="#787878" class="dx_darkgray" />
                              </g>
                            </g>
                          </g>
                        </g>
                      </g>
                    </g>
                  </g>
                </g>
              </g>
            </g>
          </g>
        </g>
      </g>
    </g>
  </g>
  <g transform="translate(0, 0)">
    <g transform="matrix(1.14285719394684, 0, 0, 1.14285719394684, 0, 0)">
      <g transform="translate(0, 0)">
        <g transform="matrix(0.874998331069946, 0, 0, 0.874998331069946, 0, 0)">
          <g transform="translate(-9.5367431640625E-07, 0)">
            <g transform="matrix(1.14285719394684, 0, 0, 1.14285719394684, 0, 0)">
              <g transform="translate(-9.5367431640625E-07, -9.5367431640625E-07)">
                <g transform="matrix(0.875000715255737, 0, 0, 0.875000715255737, 0, 0)">
                  <g transform="translate(0, -1.9073486328125E-06)">
                    <g transform="matrix(1.14285719394684, 0, 0, 1.14285719394684, 0, 0)">
                      <g id="Layer_1" transform="translate(-3.50000333786011, -1.9073486328125E-06)" style="enable-background:new 0 0 16 16">
                        <g transform="matrix(1.75000143051147, 0, 0, 1.75000143051147, 0, 0)">
                          <g>
                            <g>
                              <g>
                                <rect x="6" y="9" width="4" height="1" fill="#787878" class="dx_darkgray" />
                              </g>
                            </g>
                          </g>
                        </g>
                      </g>
                    </g>
                  </g>
                </g>
              </g>
            </g>
          </g>
        </g>
      </g>
    </g>
  </g>
  <g transform="translate(0, 0)">
    <g transform="matrix(1.14285719394684, 0, 0, 1.14285719394684, 0, 0)">
      <g transform="translate(0, 0)">
        <g transform="matrix(0.874998331069946, 0, 0, 0.874998331069946, 0, 0)">
          <g transform="translate(-9.5367431640625E-07, 0)">
            <g transform="matrix(1.14285719394684, 0, 0, 1.14285719394684, 0, 0)">
              <g transform="translate(-9.5367431640625E-07, -9.5367431640625E-07)">
                <g transform="matrix(0.875000715255737, 0, 0, 0.875000715255737, 0, 0)">
                  <g transform="translate(0, -1.9073486328125E-06)">
                    <g transform="matrix(1.14285719394684, 0, 0, 1.14285719394684, 0, 0)">
                      <g id="Layer_1" transform="translate(-3.50000333786011, -1.9073486328125E-06)" style="enable-background:new 0 0 16 16">
                        <g transform="matrix(1.75000143051147, 0, 0, 1.75000143051147, 0, 0)">
                          <g>
                            <g>
                              <g>
                                <rect x="6" y="9" width="4" height="1" fill="#787878" class="dx_darkgray" />
                              </g>
                            </g>
                          </g>
                        </g>
                      </g>
                    </g>
                  </g>
                </g>
              </g>
            </g>
          </g>
        </g>
      </g>
    </g>
  </g>
  <g transform="translate(0, 0)">
    <g transform="matrix(1.14285719394684, 0, 0, 1.14285719394684, 0, 0)">
      <g transform="translate(0, 0)">
        <g transform="matrix(0.874998331069946, 0, 0, 0.874998331069946, 0, 0)">
          <g transform="translate(-9.5367431640625E-07, 0)">
            <g transform="matrix(1.14285719394684, 0, 0, 1.14285719394684, 0, 0)">
              <g transform="translate(-9.5367431640625E-07, 0)">
                <g transform="matrix(0.875000715255737, 0, 0, 0.875000715255737, 0, 0)">
                  <g transform="translate(0, 0)">
                    <g transform="matrix(1.14285719394684, 0, 0, 1.14285719394684, 0, 0)">
                      <g id="Layer_1" transform="translate(-3.50000333786011, 0)" style="enable-background:new 0 0 16 16">
                        <g transform="matrix(1.75000143051147, 0, 0, 1.75000143051147, 0, 0)">
                          <g>
                            <g>
                              <g>
                                <rect x="6" y="11" width="4" height="1" fill="#787878" class="dx_darkgray" />
                              </g>
                            </g>
                          </g>
                        </g>
                      </g>
                    </g>
                  </g>
                </g>
              </g>
            </g>
          </g>
        </g>
      </g>
    </g>
  </g>
  <g transform="translate(0, 0)">
    <g transform="matrix(1.14285719394684, 0, 0, 1.14285719394684, 0, 0)">
      <g transform="translate(0, 0)">
        <g transform="matrix(0.874998331069946, 0, 0, 0.874998331069946, 0, 0)">
          <g transform="translate(-9.5367431640625E-07, 0)">
            <g transform="matrix(1.14285719394684, 0, 0, 1.14285719394684, 0, 0)">
              <g transform="translate(-9.5367431640625E-07, 0)">
                <g transform="matrix(0.875000715255737, 0, 0, 0.875000715255737, 0, 0)">
                  <g transform="translate(0, 0)">
                    <g transform="matrix(1.14285719394684, 0, 0, 1.14285719394684, 0, 0)">
                      <g id="Layer_1" transform="translate(-3.50000333786011, 0)" style="enable-background:new 0 0 16 16">
                        <g transform="matrix(1.75000143051147, 0, 0, 1.75000143051147, 0, 0)">
                          <g>
                            <g>
                              <g>
                                <rect x="6" y="11" width="4" height="1" fill="#787878" class="dx_darkgray" />
                              </g>
                            </g>
                          </g>
                        </g>
                      </g>
                    </g>
                  </g>
                </g>
              </g>
            </g>
          </g>
        </g>
      </g>
    </g>
  </g>
  <g transform="translate(0, 0)">
    <g transform="matrix(1.14285719394684, 0, 0, 1.14285719394684, 0, 0)">
      <g transform="translate(0, 0)">
        <g transform="matrix(0.874998331069946, 0, 0, 0.874998331069946, 0, 0)">
          <g transform="translate(0, 0)">
            <g transform="matrix(1.14285719394684, 0, 0, 1.14285719394684, 0, 0)">
              <g transform="translate(0, 0)">
                <g transform="matrix(0.875000715255737, 0, 0, 0.875000715255737, 0, 0)">
                  <g transform="translate(0, 0)">
                    <g transform="matrix(1.14285719394684, 0, 0, 1.14285719394684, 0, 0)">
                      <g id="Layer_1" transform="translate(-3.50000286102295, 0)" style="enable-background:new 0 0 16 16">
                        <g transform="matrix(1.75000143051147, 0, 0, 1.75000143051147, 0, 0)">
                          <g>
                            <g>
                              <g>
                                <g>
                                  <path d="M11, 2L11, 0L5, 0L5, 2L2, 2L2, 16L14, 16L14, 2L11, 2zM12, 14L4, 14L4, 4L12, 4L12, 14z" fill="#FFFFFF" class="White" />
                                </g>
                              </g>
                            </g>
                          </g>
                        </g>
                      </g>
                    </g>
                  </g>
                </g>
              </g>
            </g>
          </g>
        </g>
      </g>
    </g>
  </g>
  <g transform="translate(0, -9.5367431640625E-07)">
    <g transform="matrix(1.14285719394684, 0, 0, 1.14285719394684, 0, 0)">
      <g transform="translate(0, 0)">
        <g transform="matrix(0.874998331069946, 0, 0, 0.874998331069946, 0, 0)">
          <g transform="translate(-9.5367431640625E-07, -9.5367431640625E-07)">
            <g transform="matrix(1.14285719394684, 0, 0, 1.14285719394684, 0, 0)">
              <g transform="translate(-9.5367431640625E-07, 0)">
                <g transform="matrix(0.875000715255737, 0, 0, 0.875000715255737, 0, 0)">
                  <g transform="translate(0, -9.5367431640625E-07)">
                    <g transform="matrix(1.14285719394684, 0, 0, 1.14285719394684, 0, 0)">
                      <g id="Layer_1" transform="translate(-3.50000333786011, -9.5367431640625E-07)" style="enable-background:new 0 0 16 16">
                        <g transform="matrix(1.75000143051147, 0, 0, 1.75000143051147, 0, 0)">
                          <g>
                            <g>
                              <g>
                                <rect x="6" y="5" width="4" height="1" fill="#FFFFFF" class="White" />
                              </g>
                            </g>
                          </g>
                        </g>
                      </g>
                    </g>
                  </g>
                </g>
              </g>
            </g>
          </g>
        </g>
      </g>
    </g>
  </g>
  <g transform="translate(0, -9.5367431640625E-07)">
    <g transform="matrix(1.14285719394684, 0, 0, 1.14285719394684, 0, 0)">
      <g transform="translate(0, 0)">
        <g transform="matrix(0.874998331069946, 0, 0, 0.874998331069946, 0, 0)">
          <g transform="translate(-9.5367431640625E-07, -9.5367431640625E-07)">
            <g transform="matrix(1.14285719394684, 0, 0, 1.14285719394684, 0, 0)">
              <g transform="translate(-9.5367431640625E-07, 0)">
                <g transform="matrix(0.875000715255737, 0, 0, 0.875000715255737, 0, 0)">
                  <g transform="translate(0, -9.5367431640625E-07)">
                    <g transform="matrix(1.14285719394684, 0, 0, 1.14285719394684, 0, 0)">
                      <g id="Layer_1" transform="translate(-3.50000333786011, -9.5367431640625E-07)" style="enable-background:new 0 0 16 16">
                        <g transform="matrix(1.75000143051147, 0, 0, 1.75000143051147, 0, 0)">
                          <g>
                            <g>
                              <g>
                                <rect x="6" y="7" width="4" height="1" fill="#FFFFFF" class="White" />
                              </g>
                            </g>
                          </g>
                        </g>
                      </g>
                    </g>
                  </g>
                </g>
              </g>
            </g>
          </g>
        </g>
      </g>
    </g>
  </g>
  <g transform="translate(0, 0)">
    <g transform="matrix(1.14285719394684, 0, 0, 1.14285719394684, 0, 0)">
      <g transform="translate(0, 0)">
        <g transform="matrix(0.874998331069946, 0, 0, 0.874998331069946, 0, 0)">
          <g transform="translate(-9.5367431640625E-07, 0)">
            <g transform="matrix(1.14285719394684, 0, 0, 1.14285719394684, 0, 0)">
              <g transform="translate(-9.5367431640625E-07, -9.5367431640625E-07)">
                <g transform="matrix(0.875000715255737, 0, 0, 0.875000715255737, 0, 0)">
                  <g transform="translate(0, -1.9073486328125E-06)">
                    <g transform="matrix(1.14285719394684, 0, 0, 1.14285719394684, 0, 0)">
                      <g id="Layer_1" transform="translate(-3.50000333786011, -1.9073486328125E-06)" style="enable-background:new 0 0 16 16">
                        <g transform="matrix(1.75000143051147, 0, 0, 1.75000143051147, 0, 0)">
                          <g>
                            <g>
                              <g>
                                <rect x="6" y="9" width="4" height="1" fill="#FFFFFF" class="White" />
                              </g>
                            </g>
                          </g>
                        </g>
                      </g>
                    </g>
                  </g>
                </g>
              </g>
            </g>
          </g>
        </g>
      </g>
    </g>
  </g>
  <g transform="translate(0, 0)">
    <g transform="matrix(1.14285719394684, 0, 0, 1.14285719394684, 0, 0)">
      <g transform="translate(0, 0)">
        <g transform="matrix(0.874998331069946, 0, 0, 0.874998331069946, 0, 0)">
          <g transform="translate(-9.5367431640625E-07, 0)">
            <g transform="matrix(1.14285719394684, 0, 0, 1.14285719394684, 0, 0)">
              <g transform="translate(-9.5367431640625E-07, 0)">
                <g transform="matrix(0.875000715255737, 0, 0, 0.875000715255737, 0, 0)">
                  <g transform="translate(0, 0)">
                    <g transform="matrix(1.14285719394684, 0, 0, 1.14285719394684, 0, 0)">
                      <g id="Layer_1" transform="translate(-3.50000333786011, 0)" style="enable-background:new 0 0 16 16">
                        <g transform="matrix(1.75000143051147, 0, 0, 1.75000143051147, 0, 0)">
                          <g>
                            <g>
                              <g>
                                <rect x="6" y="11" width="4" height="1" fill="#FFFFFF" class="White" />
                              </g>
                            </g>
                          </g>
                        </g>
                      </g>
                    </g>
                  </g>
                </g>
              </g>
            </g>
          </g>
        </g>
      </g>
    </g>
  </g>
  <g id="Layer_1" transform="translate(12.0000003814697, 16)" style="enable-background:new 0 0 16 16">
    <g id="User">
      <path d="M4, 4.9C3.9, 5.3 4.1, 5.5 4.3, 5.8C4.5, 6.1 4.2, 6.8 4.9, 6.8C4.9, 6.8 4.9, 6.9 4.9, 6.9C5.3, 8.4 6.2, 10 8, 10C9.8, 10 10.8, 8.4 11.2, 6.9C11.2, 6.9 11.2, 6.8 11.2, 6.8C11.9, 6.8 11.6, 6.1 11.8, 5.8C12, 5.5 12.1, 5.3 12, 4.9C11.9, 4.6 11.7, 4.7 11.6, 4.7C12.8, 1.6 10.9, 1.8 10.9, 1.8C10.9, 1.8 10.7, 0 7.2, 0C4, 0 3.6, 2.5 4.3, 4.7C4.3, 4.8 4.1, 4.8 4, 4.9z" fill="#FFB115" class="Yellow" />
    </g>
  </g>
  <g id="Layer_1" transform="translate(12, 16)" style="enable-background:new 0 0 16 16">
    <g id="User">
      <path d="M10.7, 10C10.2, 10.9 9.3, 12 8, 12C6.7, 12 5.9, 10.9 5.3, 10C3.8, 12.1 0, 10.6 0, 15.1L0, 16L16, 16L16, 15.1C16, 10.6 12.2, 12.1 10.7, 10z" fill="#FFB115" class="Yellow" />
    </g>
  </g>
</svg>