<?xml version='1.0' encoding='UTF-8'?>
<svg viewBox="0 0 32 32" xmlns="http://www.w3.org/2000/svg" xmlns:xlink="http://www.w3.org/1999/xlink">
  <g transform="translate(0, 0)">
    <g transform="matrix(1.14285719394684, 0, 0, 1.14285719394684, 0, 0)">
      <g transform="translate(0, 0)">
        <g transform="matrix(1.16666543483734, 0, 0, 1.16666543483734, 0, 0)">
          <g id="Save" transform="translate(-4, -4)">
            <path d="M27, 4L24, 4L24, 14L8, 14L8, 4L5, 4C4.4, 4 4, 4.4 4, 5L4, 27C4, 27.6 4.4, 28 5, 28L27, 28C27.6, 28 28, 27.6 28, 27L28, 5C28, 4.4 27.6, 4 27, 4zM24, 24L8, 24L8, 18L24, 18L24, 24zM10, 4L10, 12L20, 12L20, 4L10, 4zM14, 10L12, 10L12, 6L14, 6L14, 10z" fill="#FFB115" class="Yellow" />
          </g>
        </g>
      </g>
    </g>
  </g>
  <g id="Layer_1" transform="translate(16, 16)" style="enable-background:new 0 0 16 16">
    <g id="CheckCircled_2_">
      <circle cx="8" cy="8" r="8" fill="#039C23" class="Green" />
    </g>
  </g>
  <g id="Layer_1" transform="translate(16, 16)" style="enable-background:new 0 0 16 16">
    <g id="CheckCircled_2_">
      <polygon points="11.5,4 6.5,9 4.5,7 3,8.5 6.5,12 13,5.5  " fill="#FFFFFF" class="White" />
    </g>
  </g>
</svg>